<?xml version="1.0" encoding="UTF-8"?>
<svg id="Laag_1" xmlns="http://www.w3.org/2000/svg" viewBox="0 0 102.89 103.19">
  <g>
    <path d="M100.28,102.69c-.86,0-1.76-.43-2.4-1.15L1.46,5.46c-.72-.76-1.05-1.73-.94-2.69.09-.73.44-1.35.96-1.68.31-.2.7-.31,1.13-.31.86,0,1.76.43,2.4,1.15l96.42,96.07c.72.76,1.05,1.73.94,2.69-.09.73-.44,1.35-.96,1.68-.31.2-.7.31-1.13.31Z"/>
    <path d="M2.61,1.29c.66,0,1.44.32,2.03.99,32.15,32.03,64.29,64.06,96.44,96.09,1.2,1.27.94,3.02.06,3.59-.24.15-.53.23-.86.23-.66,0-1.44-.32-2.03-.99L1.81,5.11c-1.2-1.27-.94-3.02-.06-3.59.24-.15.53-.23.86-.23M2.61.29h0c-.52,0-1,.13-1.4.39C.57,1.09.13,1.83.03,2.71c-.13,1.1.25,2.22,1.06,3.08l96.44,96.09c.73.81,1.76,1.3,2.75,1.3.52,0,1-.13,1.4-.39.65-.41,1.08-1.16,1.19-2.04.13-1.1-.25-2.22-1.06-3.08L5.36,1.59c-.73-.81-1.76-1.3-2.75-1.3h0Z"/>
  </g>
  <g>
    <path d="M3.71,102.57c-.86,0-1.64-.37-2.03-.97-.65-.99-.29-2.54.81-3.53L97.39,1.47c.66-.63,1.48-.97,2.32-.97s1.64.37,2.03.97c.65.99.29,2.54-.81,3.53L6.03,101.6c-.66.63-1.48.97-2.32.97Z"/>
    <path d="M99.72,1c.7,0,1.32.29,1.62.74.47.72.25,2.01-.73,2.88L5.67,101.25c-.6.58-1.32.82-1.97.82-.7,0-1.32-.29-1.62-.74-.47-.72-.25-2.01.73-2.88C34.46,66.24,66.11,34.03,97.75,1.82c.6-.58,1.32-.82,1.97-.82M99.72,0h0c-.97,0-1.92.39-2.66,1.1l-63.12,64.25L2.12,97.73c-1.26,1.15-1.64,2.97-.87,4.15.49.75,1.41,1.19,2.45,1.19.97,0,1.92-.39,2.66-1.1L101.3,5.34c1.26-1.15,1.64-2.97.87-4.15-.49-.75-1.41-1.19-2.45-1.19h0Z"/>
  </g>
</svg>