<?xml version="1.0" encoding="UTF-8"?>
<svg id="Laag_1" xmlns="http://www.w3.org/2000/svg" viewBox="0 0 9.29 5">
  <defs>
    <style>
      .cls-1 {
        fill: #333;
      }
    </style>
  </defs>
  <g>
    <path class="cls-1" d="M4.66,4.86c-.07,0-.13-.03-.18-.09L.2.51c-.05-.06-.08-.13-.07-.2v-.06s.09-.09.09-.09l.03-.02h.08c.07-.01.14.02.18.08l4.28,4.27c.05.06.08.13.07.2v.06s-.09.09-.09.09l-.03.02h-.08Z"/>
    <path d="M.32.25s.06.01.09.04c1.43,1.42,2.86,2.85,4.29,4.27.05.06.04.13,0,.16-.01,0-.02.01-.04.01-.03,0-.06-.01-.09-.04L.29.42c-.05-.06-.04-.13,0-.16.01,0,.02-.01.04-.01M.32,0h-.07l-.1.05C.07.1.01.19,0,.29c-.01.11.02.22.1.3l4.29,4.28c.06.07.16.12.27.12h.07l.1-.05c.08-.05.13-.14.15-.24.01-.11-.02-.22-.1-.3L.59.12c-.06-.07-.16-.12-.27-.12H.32Z"/>
  </g>
  <g>
    <path class="cls-1" d="M4.64,4.87l-.11-.09c-.06-.09-.03-.21.05-.29L8.81.19l.14-.04c.07,0,.14.03.18.09.06.09.03.21-.05.29l-4.23,4.3-.14.04h-.07Z"/>
    <path d="M8.95.28s.06.01.07.03c.02.03.01.09-.03.13l-4.2,4.27s-.06.04-.09.04c-.03,0-.06-.01-.07-.03-.02-.03-.01-.09.03-.13,1.4-1.42,2.8-2.85,4.2-4.27.03-.03.06-.04.09-.04M8.95.03c-.1,0-.19.04-.26.11l-4.2,4.28c-.12.11-.15.3-.06.44.06.09.16.15.28.15.1,0,.19-.04.26-.11L9.17.61c.12-.11.15-.3.06-.44-.06-.09-.16-.15-.28-.15h0Z"/>
  </g>
</svg>