<?xml version="1.0" encoding="UTF-8"?>
<svg id="Laag_1" xmlns="http://www.w3.org/2000/svg" viewBox="0 0 9.29 5">
  <defs>
    <style>
      .cls-1 {
        fill: #333;
      }
    </style>
  </defs>
  <g>
    <path class="cls-1" d="M8.96,4.87c-.07,0-.14-.03-.18-.09L4.5.52c-.05-.06-.08-.13-.07-.2v-.06s.09-.09.09-.09l.03-.02h.08c.07-.01.13.02.18.08l4.28,4.27c.05.06.08.13.07.2v.06s-.09.09-.09.09l-.03.02h-.08Z"/>
    <path d="M4.62.26s.06.01.09.04l4.29,4.27c.05.06.04.13,0,.16-.01,0-.02.01-.04.01-.03,0-.06-.01-.09-.04C7.44,3.28,6.01,1.85,4.59.43c-.05-.06-.04-.13,0-.16.01,0,.02-.01.04-.01M4.62.01h-.07l-.1.05c-.08.05-.13.14-.15.24-.01.11.02.22.1.3l4.29,4.28c.06.07.16.12.27.12h.07l.1-.05c.08-.05.13-.14.15-.24.01-.11-.02-.22-.1-.3L4.89.13c-.06-.07-.16-.12-.27-.12h0Z"/>
  </g>
  <g>
    <path class="cls-1" d="M.26,4.84l-.11-.09c-.06-.09-.03-.21.05-.29L4.44.16l.14-.04c.07,0,.14.03.18.09.06.09.03.21-.05.29L.47,4.81l-.14.04h-.07Z"/>
    <path d="M4.58.25s.06.01.07.03c.02.03.01.09-.03.13C3.22,1.83,1.82,3.26.42,4.68c-.03.03-.06.04-.09.04-.03,0-.06-.01-.07-.03-.02-.03-.01-.09.03-.13L4.49.29s.06-.04.09-.04M4.58,0h0c-.1,0-.19.04-.26.11L.11,4.38c-.12.11-.15.3-.06.44.06.09.16.15.28.15.1,0,.19-.04.26-.11l2.1-2.14L4.79.58c.12-.11.15-.3.06-.44-.06-.09-.16-.15-.28-.15h0Z"/>
  </g>
</svg>